<?xml version="1.0" standalone="no"?>
<!DOCTYPE svg PUBLIC "-//W3C//DTD SVG 20010904//EN"
 "http://www.w3.org/TR/2001/REC-SVG-20010904/DTD/svg10.dtd">
<svg version="1.0" xmlns="http://www.w3.org/2000/svg"
 width="700.000000pt" height="700.000000pt" viewBox="0 0 700.000000 700.000000"
 preserveAspectRatio="xMidYMid meet">
<metadata>
Created by potrace 1.11, written by Peter Selinger 2001-2013
</metadata>
<g transform="translate(0.000000,700.000000) scale(0.100000,-0.100000)"
fill="#000000" stroke="none">
<path d="M3255 5778 c-655 -66 -1221 -424 -1553 -981 -141 -238 -233 -516
-273 -832 -20 -152 -17 -514 5 -660 23 -150 74 -352 119 -471 67 -175 218
-448 236 -428 4 5 87 175 184 377 l176 368 -11 117 c-17 186 -4 743 21 927 75
546 228 923 488 1196 127 133 276 225 443 273 67 20 214 46 255 46 23 0 35 8
53 35 30 47 75 49 100 5 9 -16 24 -30 32 -30 8 0 56 -5 105 -10 370 -41 618
-195 830 -514 202 -304 320 -649 381 -1107 22 -168 30 -653 14 -865 l-12 -161
183 -358 182 -357 44 68 c317 489 415 1179 258 1805 -108 427 -344 809 -679
1096 -310 266 -662 418 -1068 462 -114 13 -384 12 -513 -1z"/>
<path d="M3427 5748 c-13 -13 -32 -49 -42 -79 -22 -65 -60 -145 -360 -759
-420 -858 -655 -1343 -1177 -2430 -170 -355 -320 -664 -334 -687 -33 -57 -89
-110 -146 -139 -71 -36 -172 -54 -368 -65 -227 -12 -288 -27 -273 -65 12 -33
75 -38 233 -19 163 19 272 19 955 -6 176 -6 374 -9 440 -6 170 7 237 38 161
75 -26 13 -112 21 -468 41 -188 11 -221 21 -244 77 -18 42 -12 79 28 189 49
133 122 294 294 643 l163 332 897 -2 898 -3 99 -220 c54 -121 143 -321 197
-445 54 -124 117 -268 140 -320 63 -142 61 -135 40 -163 -41 -52 -192 -74
-575 -86 -277 -9 -337 -18 -359 -53 -14 -24 9 -47 60 -59 24 -5 167 -4 374 3
438 15 1353 15 1796 -1 352 -12 396 -9 416 22 22 36 -30 47 -287 62 -325 19
-376 33 -455 122 -42 48 -215 386 -1607 3153 -245 487 -451 891 -458 899 -11
11 -17 10 -38 -11z m-52 -1395 c98 -208 290 -602 427 -875 136 -274 248 -500
248 -503 0 -3 -385 -5 -855 -5 -493 0 -855 4 -855 9 0 9 220 483 395 851 148
311 445 900 453 900 4 0 88 -170 187 -377z"/>
<path d="M2102 2429 c-67 -138 -122 -259 -122 -269 0 -20 135 -152 250 -243
376 -301 811 -448 1313 -446 166 0 170 1 125 15 -26 8 -52 23 -57 33 -8 15
-28 19 -118 24 -452 28 -774 214 -1017 589 -77 119 -156 286 -202 428 -22 66
-42 120 -45 120 -3 0 -60 -113 -127 -251z"/>
<path d="M4380 1877 c-86 -92 -145 -139 -256 -203 l-79 -46 115 7 c197 11 260
22 328 56 34 18 62 37 62 44 0 10 -86 215 -93 221 -1 1 -36 -35 -77 -79z"/>
</g>
</svg>
